HIERARCHY
ROOT Hips
{
	OFFSET -14.64140 90.27770 -84.91600
	CHANNELS 6 Xposition Yposition Zposition Zrotation Xrotation Yrotation
	JOINT Spine
	{
		OFFSET 0.00000 13.20850 -1.60436
		CHANNELS 3 Zrotation Xrotation Yrotation
		JOINT Spine1
		{
			OFFSET 0.00000 8.61716 0.00000
			CHANNELS 3 Zrotation Xrotation Yrotation
			JOINT Spine2
			{
				OFFSET 0.00000 8.61717 0.00000
				CHANNELS 3 Zrotation Xrotation Yrotation
				JOINT Spine3
				{
					OFFSET 0.00000 8.61717 0.00000
					CHANNELS 3 Zrotation Xrotation Yrotation
					JOINT Neck
					{
						OFFSET 0.00000 11.07920 1.10792
						CHANNELS 3 Zrotation Xrotation Yrotation
						JOINT Neck1
						{
							OFFSET 0.00000 7.08032 0.00000
							CHANNELS 3 Zrotation Xrotation Yrotation
							JOINT Head
							{
								OFFSET 0.00000 7.08031 0.00000
								CHANNELS 3 Zrotation Xrotation Yrotation
								End site
								{
									OFFSET 0.00000 0.00000 0.00000
								}
							}
						}
					}
					JOINT RightShoulder
					{
						OFFSET -0.01000 7.91373 5.19711
						CHANNELS 3 Zrotation Xrotation Yrotation
						JOINT RightArm
						{
							OFFSET -18.41580 0.00000 0.00000
							CHANNELS 3 Zrotation Xrotation Yrotation
							JOINT RightForeArm
							{
								OFFSET -29.11090 0.00000 0.00000
								CHANNELS 3 Zrotation Xrotation Yrotation
								JOINT RightHand
								{
									OFFSET -24.65040 0.00000 0.00000
									CHANNELS 3 Zrotation Xrotation Yrotation
									JOINT RightHandThumb1
									{
										OFFSET -5.35114 -0.85590 3.97906
										CHANNELS 3 Zrotation Xrotation Yrotation
										JOINT RightHandThumb2
										{
											OFFSET -4.52789 0.00000 0.00000
											CHANNELS 3 Zrotation Xrotation Yrotation
											JOINT RightHandThumb3
											{
												OFFSET -2.46976 0.00000 0.00000
												CHANNELS 3 Zrotation Xrotation Yrotation
												End site
												{
													OFFSET 0.00000 0.00000 0.00000
												}
											}
										}
									}
									JOINT RightHandIndex1
									{
										OFFSET -14.26970 0.00000 2.88139
										CHANNELS 3 Zrotation Xrotation Yrotation
										JOINT RightHandIndex2
										{
											OFFSET -5.48836 0.00000 0.00000
											CHANNELS 3 Zrotation Xrotation Yrotation
											JOINT RightHandIndex3
											{
												OFFSET -3.01859 0.00000 0.00000
												CHANNELS 3 Zrotation Xrotation Yrotation
												End site
												{
													OFFSET 0.00000 0.00000 0.00000
												}
											}
										}
									}
									JOINT RightHandMiddle1
									{
										OFFSET -14.26970 0.00000 -0.09147
										CHANNELS 3 Zrotation Xrotation Yrotation
										JOINT RightHandMiddle2
										{
											OFFSET -6.17441 0.00000 0.00000
											CHANNELS 3 Zrotation Xrotation Yrotation
											JOINT RightHandMiddle3
											{
												OFFSET -3.56743 0.00000 0.00000
												CHANNELS 3 Zrotation Xrotation Yrotation
												End site
												{
													OFFSET 0.00000 0.00000 0.00000
												}
											}
										}
									}
									JOINT RightHandRing1
									{
										OFFSET -12.69180 0.00000 -3.06433
										CHANNELS 3 Zrotation Xrotation Yrotation
										JOINT RightHandRing2
										{
											OFFSET -5.62556 0.00000 0.00000
											CHANNELS 3 Zrotation Xrotation Yrotation
											JOINT RightHandRing3
											{
												OFFSET -3.56744 0.00000 0.00000
												CHANNELS 3 Zrotation Xrotation Yrotation
												End site
												{
													OFFSET 0.00000 0.00000 0.00000
												}
											}
										}
									}
									JOINT RightHandPinky1
									{
										OFFSET -11.11390 0.00000 -6.03719
										CHANNELS 3 Zrotation Xrotation Yrotation
										JOINT RightHandPinky2
										{
											OFFSET -4.52789 0.00000 0.00000
											CHANNELS 3 Zrotation Xrotation Yrotation
											JOINT RightHandPinky3
											{
												OFFSET -2.46976 0.00000 0.00000
												CHANNELS 3 Zrotation Xrotation Yrotation
												End site
												{
													OFFSET 0.00000 0.00000 0.00000
												}
											}
										}
									}
								}
							}
						}
					}
					JOINT LeftShoulder
					{
						OFFSET 0.01000 7.91373 5.19711
						CHANNELS 3 Zrotation Xrotation Yrotation
						JOINT LeftArm
						{
							OFFSET 18.41580 0.00000 0.00000
							CHANNELS 3 Zrotation Xrotation Yrotation
							JOINT LeftForeArm
							{
								OFFSET 29.11090 0.00000 0.00000
								CHANNELS 3 Zrotation Xrotation Yrotation
								JOINT LeftHand
								{
									OFFSET 24.65040 0.00000 0.00000
									CHANNELS 3 Zrotation Xrotation Yrotation
									JOINT LeftHandThumb1
									{
										OFFSET 5.35114 -0.85590 3.97906
										CHANNELS 3 Zrotation Xrotation Yrotation
										JOINT LeftHandThumb2
										{
											OFFSET 4.52789 0.00000 0.00000
											CHANNELS 3 Zrotation Xrotation Yrotation
											JOINT LeftHandThumb3
											{
												OFFSET 2.46977 0.00000 0.00000
												CHANNELS 3 Zrotation Xrotation Yrotation
												End site
												{
													OFFSET 0.00000 0.00000 0.00000
												}
											}
										}
									}
									JOINT LeftHandIndex1
									{
										OFFSET 14.26970 0.00000 2.88139
										CHANNELS 3 Zrotation Xrotation Yrotation
										JOINT LeftHandIndex2
										{
											OFFSET 5.48836 0.00000 0.00000
											CHANNELS 3 Zrotation Xrotation Yrotation
											JOINT LeftHandIndex3
											{
												OFFSET 3.01859 0.00000 0.00000
												CHANNELS 3 Zrotation Xrotation Yrotation
												End site
												{
													OFFSET 0.00000 0.00000 0.00000
												}
											}
										}
									}
									JOINT LeftHandMiddle1
									{
										OFFSET 14.26970 0.00000 -0.09147
										CHANNELS 3 Zrotation Xrotation Yrotation
										JOINT LeftHandMiddle2
										{
											OFFSET 6.17440 0.00000 0.00000
											CHANNELS 3 Zrotation Xrotation Yrotation
											JOINT LeftHandMiddle3
											{
												OFFSET 3.56744 0.00000 0.00000
												CHANNELS 3 Zrotation Xrotation Yrotation
												End site
												{
													OFFSET 0.00000 0.00000 0.00000
												}
											}
										}
									}
									JOINT LeftHandRing1
									{
										OFFSET 12.69180 0.00000 -3.06433
										CHANNELS 3 Zrotation Xrotation Yrotation
										JOINT LeftHandRing2
										{
											OFFSET 5.62556 0.00000 0.00000
											CHANNELS 3 Zrotation Xrotation Yrotation
											JOINT LeftHandRing3
											{
												OFFSET 3.56744 0.00000 0.00000
												CHANNELS 3 Zrotation Xrotation Yrotation
												End site
												{
													OFFSET 0.00000 0.00000 0.00000
												}
											}
										}
									}
									JOINT LeftHandPinky1
									{
										OFFSET 11.11390 0.00000 -6.03719
										CHANNELS 3 Zrotation Xrotation Yrotation
										JOINT LeftHandPinky2
										{
											OFFSET 4.52789 0.00000 0.00000
											CHANNELS 3 Zrotation Xrotation Yrotation
											JOINT LeftHandPinky3
											{
												OFFSET 2.46976 0.00000 0.00000
												CHANNELS 3 Zrotation Xrotation Yrotation
												End site
												{
													OFFSET 0.00000 0.00000 0.00000
												}
											}
										}
									}
								}
							}
						}
					}
					JOINT pCube4
					{
						OFFSET 0.00000 10.91090 1.10792
						CHANNELS 3 Zrotation Xrotation Yrotation
						End site
						{
							OFFSET 0.00000 0.00000 0.00000
						}
					}
				}
			}
		}
	}
	JOINT RightUpLeg
	{
		OFFSET -9.98441 0.00000 0.00000
		CHANNELS 3 Zrotation Xrotation Yrotation
		JOINT RightLeg
		{
			OFFSET 0.00000 -42.11790 0.00000
			CHANNELS 3 Zrotation Xrotation Yrotation
			JOINT RightFoot
			{
				OFFSET 0.00000 -45.00020 -0.00001
				CHANNELS 3 Zrotation Xrotation Yrotation
				JOINT RightForeFoot
				{
					OFFSET 0.00000 -3.74820 0.00000
					CHANNELS 3 Zrotation Xrotation Yrotation
					JOINT RightToeBase
					{
						OFFSET 0.00000 0.06325 14.43120
						CHANNELS 3 Zrotation Xrotation Yrotation
						End site
						{
							OFFSET 0.00000 0.00000 0.00000
						}
					}
				}
			}
		}
	}
	JOINT LeftUpLeg
	{
		OFFSET 9.98441 0.00000 0.00000
		CHANNELS 3 Zrotation Xrotation Yrotation
		JOINT LeftLeg
		{
			OFFSET 0.00000 -42.11800 0.00000
			CHANNELS 3 Zrotation Xrotation Yrotation
			JOINT LeftFoot
			{
				OFFSET 0.00000 -45.00070 0.00000
				CHANNELS 3 Zrotation Xrotation Yrotation
				JOINT LeftForeFoot
				{
					OFFSET 0.00000 -3.74824 0.00000
					CHANNELS 3 Zrotation Xrotation Yrotation
					JOINT LeftToeBase
					{
						OFFSET 0.00000 0.06325 14.43110
						CHANNELS 3 Zrotation Xrotation Yrotation
						End site
						{
							OFFSET 0.00000 0.00000 0.00000
						}
					}
				}
			}
		}
	}
}
MOTION
Frames: 4
Frame Time: 0.050000
0.010137381460400254 -0.043826038705018895 -0.02012186441901891 -0.01701835110234639 0.0457897997554187 -0.00335156016540068 -2.3959204749803007 -0.5259784903866631 -0.7841072224342459 -0.9444703100885039 3.625080314060829 0.36392273825176563 -1.195349204852986 -2.124863763509208 -0.46905145050653413 -0.27469011058551257 0.2700427807160318 -0.6871696234452792 -0.2653935173756537 13.963916188771417 1.035380346873878 0.22716962483663666 1.2028449810769577 0.9275944326037818 -0.08187220421855057 -12.843455785279811 0.05229057769325071 -4.70936617155353 1.7581100686838194 -15.21391050845637 70.61043113047786 18.58325554859456 10.427046115478266 9.95697917845284 2.926387636882874 104.74388860567419 15.529268100308053 -0.4987681682723935 -4.241927381681371 4.518471710388973 -0.1687147715674492 -1.6246212489248415 0.04153370198788414 -0.02060472284854395 -56.245058911166815 0.009163811050900174 0.020925327988460942 -56.222206392805816 -38.79805268900293 0.046231026778720305 0.012892384782969562 0.015599639859087511 0.037827985420303516 -0.02771879685580294 0.04529448895176767 -0.001759293646204782 0.02344642917174725 -36.68553176156955 0.03403753584450143 -0.025423180395602357 -0.016221079698849672 -0.0199801300140205 -0.02788291258553968 -0.034270609723902126 0.029301640148566073 -0.046863388450638324 -19.76463207781648 -0.036968438053953 -0.03545357347351873 0.04526564729828608 0.049854052258427956 0.00552891327687627 0.03731829116051596 0.04836012530816697 -0.026548312125100167 24.085363869501577 0.03463619484444121 0.009144695640979169 28.85173207947681 -0.042951215900886075 -0.026158133400667482 28.873393953164545 -0.006985706552973057 -0.0012270423218545727 6.9071521878111914 1.610784687131939 14.11569664989424 -69.76800513114684 27.24783322052008 -9.972659720660227 -1.8843795400438976 -2.919622924620636 -103.12977182243932 -10.259129108162236 -7.753085736668814 3.980640088319129 -0.5215322160402885 0.08399330751632994 -8.11958046949647 0.02376453471315045 0.015745894508909963 44.57641000259092 0.03196879721535638 0.03967655540138584 44.53360148009621 12.508048382534774 0.022103428371400755 -0.035328752544077066 -0.04471200920727253 -0.014239217633601049 0.014306574023080073 -0.00937786539611366 0.04926639372203309 0.020300408526477114 11.111808858848796 0.03911034205218549 0.0074914008441655 0.03318379137900419 0.015037076562268579 -0.03892095278465723 0.01212752493612823 0.013688309917934247 0.019924821361545705 4.8080427382921895 0.017108158053411836 -0.010693739564353502 0.046290058368610346 -0.046154628484848595 0.024321783995004776 0.03213639418094574 0.03098484954876398 -0.04876731887349056 -5.611493733078535 0.033180633309977586 -0.0027245611419685943 -6.758555511877734 0.041955697722704896 0.04858626717683655 -6.754183154115853 -0.016364901507591418 -0.03763900732615611 -0.02587324493995946 -0.003457087263255966 0.03797361413529589 8.054405847912612 3.542026123211871 -19.17514423681932 0.02530714390251894 10.431619977951577 0.03979451230591004 -5.603484849480912 -15.610057757954518 3.171097806615931 0.004754629920621337 -0.049719911113542056 -0.017946663867862603 -0.014366977176195464 4.6871317195738795 -0.03677871629856542 12.430217059344509 -8.216655086844703 6.917469067445796 -0.02041964006505468 46.37483322872198 -0.006748465007221548 -4.3360339711774 -14.754034239424024 -3.870671666831297 -0.020641294249497545 0.04161814729808876 0.01995311944898192 0.03380079444708524 -10.789535966385134 -0.0274003332132439 
0.006818760487806489 0.013571293978872388 -0.045263479940859774 0.009541508209902794 -0.03962782372773655 -0.014365920330957167 -2.4277083585241903 -0.3531878866610677 -0.8029328147063775 -0.9289318236743014 3.65169021587008 0.3772381739549355 -1.1334655030889136 -2.03781492840417 -0.43746628452933806 -0.2442694665248977 0.22002925672017493 -0.7293435508651073 -0.27019314804704736 13.774816753998861 1.0807419170894148 0.19913509349189557 1.1020829979300786 1.05083431152779 -0.12210087358732985 -13.004096495855059 0.10015786059019954 -4.507232144339235 1.7157511770025013 -15.158871360267494 70.58850511822567 19.548258074283456 10.127834837784597 10.126098504517302 2.7144049446543823 104.6126751406528 15.622165607168792 -0.47907788848760263 -4.387595375361755 4.523175801699397 -0.12207334314002365 -1.6262673939210928 0.002699139167319109 0.047402855029543084 -56.26326308994584 -0.0480085669447899 0.03658924834292434 -56.24441237731468 -38.73541881358394 -0.016553063187370296 0.033409762272194575 0.001295433446456344 -0.049261720660182175 -0.025730477366561123 0.008645124582783433 0.04809042476466655 0.02523178346479937 -36.65479832983087 0.043832980052304044 -0.015563855579695477 -0.046556955727212364 0.04913872844552226 -0.005287831106267552 -0.004671149166377369 0.02366435747682143 -0.026406999712339917 -19.793725414272387 0.040855802900041246 0.025859873447505982 0.005817125059133606 -0.045457631136213636 0.03179300556078607 -0.001729977054890626 -0.047670948212569876 0.03261578019229617 24.05014436914845 0.015617423279344393 -0.0198366183996174 28.82416751525337 -0.04911718452016701 0.005766895567330836 28.876305643311234 0.03539342104418984 -0.006901031759074775 6.774028545406332 1.5480317957929142 14.100107269406454 -69.79747389323741 27.816294419957305 -9.934146331065055 -3.311135536734239 -2.383399302897273 -102.1500442030574 -10.820292321444029 -7.825263932474331 4.205036782569336 -0.4910940301921509 0.06443125185593986 -8.106671781086874 0.012131465375705917 0.013951594155754178 44.57741030010477 0.00546216530645984 -0.028337229140012334 44.56199998101423 12.481852824540109 -0.02127389537955049 -0.004358946604424719 0.03694203959167895 -0.0037849765163313434 0.04330406085340971 0.012325625628194078 -0.02440670230570592 0.024896676742383682 11.138880678879943 -0.04123385590284322 0.0037171706768840437 0.029071680607396084 0.007544329796039725 0.012840543788128812 0.03247620089382041 -0.0045915744144095225 0.002184189371780651 4.771213874656188 -0.031066343333524964 0.015403868505550308 0.02210154759185096 0.002327091131400024 0.036269576973265855 0.012879263808033073 -0.02006051216505581 0.01952049147028896 -5.636035257091287 -0.03226600158573321 -0.044424853275997815 -6.707589551925016 -0.042741524177487014 -0.034128566696421406 -6.718283157330976 -0.016321569008779076 0.03967525629906696 0.020402458832675885 0.03279003832519978 0.03620464017308077 8.017886832089777 3.4554908138304268 -19.199261267095718 -0.023599060448471963 10.386723959591494 0.014156331367700935 -5.639628145756013 -15.680010740245006 3.1431643002409073 0.02783754487123752 0.015034048226565327 0.02055619942993737 -0.01178478069780312 4.727284327453152 0.014728370322304278 12.44605354102762 -8.279473572695915 6.8719169252531795 -0.042892433096850514 46.42105986714829 -0.03325789302117012 -4.352189196775865 -14.787207499969647 -3.8578491458105955 -0.02751823411868092 -0.02826957034181554 0.022907137185683293 0.04335377660362281 -10.780109205868737 0.0060021294988724825 
0.03840705465190722 0.03341111841148256 -0.010265368657568937 -0.011448943262627109 0.0055143656183781736 -0.013588606560632264 -2.360583808339352 -0.2548199190593862 -0.8268930182983588 -0.99161078935596 3.6592633130457286 0.41640204810380627 -1.1297375529877305 -1.9826889554394416 -0.5024136157534466 -0.22348138052842226 0.249418434251601 -0.6895834758225725 -0.35215770091011067 13.67868737999199 1.094989559707109 0.19059403412480846 1.0340954094527424 1.0670521834633373 -0.06926723011874165 -13.188064351420888 0.07431303367695562 -4.367931973202269 1.6600816646538885 -15.133854943425787 70.73655673512859 19.603994965837376 10.272030657107347 11.044193716219379 2.6554340984131084 104.34871644024572 15.607207389265719 -0.5131616619938891 -4.250328816907925 4.504878782578215 -0.11173313969684631 -1.5760923137962075 -0.025404223555966336 -0.0059663940926919425 -56.23954542118788 0.009865476909097223 -0.001219057455231448 -56.2822537995598 -38.72646051302429 0.010658002677931294 -0.00021033454207085834 0.03696266336065143 0.00035008815858070426 -0.029788542365605124 -0.012325386453831298 -0.011126888817282191 0.01211439285703792 -36.652068323485395 -0.020273814107479502 0.04113459041683933 0.04088991544874429 -0.003785465712186931 0.02387150736563867 -0.0006279347013367883 -0.037477474144503684 0.03273221672533659 -19.735570667681927 -0.011143982717511783 -0.013208468599970467 -0.008395248144659244 0.00017424358862125775 -0.023766153639424376 0.014072619333535614 -0.0399096919861236 0.03336362708407453 24.049787368541217 -0.01719443746230617 0.03686994724417544 28.881196691792407 0.037562851162372964 0.02517398808598625 28.874363435767712 -0.016523445627708272 0.027356709826709683 6.6222557023039075 1.5797077981234322 14.120375217657251 -69.81357731612786 27.963236252996342 -9.977635808137439 -4.989300335822017 -1.8914023970501261 -101.38217080531712 -10.9728236524349 -7.653917114911351 4.281094010697662 -0.43407020050873996 0.08677618597028658 -8.111195964878371 -0.02117838738411923 -0.004410073505592593 44.57362426781079 -0.007025371067479787 -0.011357634127996733 44.54338133087943 12.430035693656485 -0.006921208826830567 0.012015428514787182 -0.03105388767963728 -0.018464581442773215 -0.03650421872644769 0.034509856268042295 0.002084720677966178 -0.02795910470313216 11.106890465585895 0.049833590773857565 -0.025445309182698 0.043254675536608715 0.0007556495114853199 -0.006133045990655674 -0.02721205855033959 -0.010272225359098731 0.039993180970261374 4.749505907632902 -0.0012385066604013218 0.010804752472459713 0.012763281947691569 0.002448183071691444 -0.03482052488112892 -0.04465154379546017 -0.04108046763942886 -0.02638716598071095 -5.607739921725223 0.025744104357460357 -0.018439546078154383 -6.674519501780018 -0.005625856306563846 0.025029928277140023 -6.714222712660321 -0.03759368167894814 -0.049999520301852785 0.0230706247213092 0.0004132011634301929 -0.0026839133846281427 8.03365591303455 3.4913724839923774 -19.21271871667615 0.03885486692717848 10.374433585615844 -0.035606719903775605 -5.63882259079427 -15.629902586533817 3.222703201284694 0.04363363100107894 0.008253510057160025 0.014453306697007602 -0.00304416376582499 4.71455452900912 0.015229613453376584 12.422180241828896 -8.253762630976277 6.875062039778398 0.04162201498551985 46.39499539442111 0.009811829106477543 -4.3485472050002985 -14.78158278400837 -3.816290520990159 -0.004718149172724545 0.012517228562446943 -0.022963684293128145 0.037910891292065166 -10.738901626882122 -0.047411465618147366 
0.016929962310311842 0.031884328560571655 0.03022702228422773 0.0486876441604637 -0.0036283593480928005 -0.04923313160651797 -2.3125177352393003 -0.18568615026951563 -0.8780037869755933 -0.941163580031309 3.669061414375414 0.347663664563165 -1.1456099031902902 -1.905626856538558 -0.46909090846978907 -0.17280093881851 0.24892825600370405 -0.7661378654711337 -0.33593855180675597 13.587766824471178 1.1500129256357665 0.1813145977739506 0.9581345593678975 1.0685527283734766 -0.0763699622222471 -13.263570792610357 0.13104859331484814 -4.213744214131664 1.6871876191129038 -15.04738474653507 70.77394970016714 19.305038163330245 10.270650607408239 12.091768720465353 2.7102824351294683 103.60695862396948 15.461910812885892 -0.4190841203366866 -4.2546066339300825 4.520277668465158 -0.16594708981774328 -1.5966702044800158 0.01791971166216386 -0.023521812936435082 -56.24197151894204 -0.00813557966474939 0.008019471081978854 -56.263154415468385 -38.767874422690745 -0.013755275853012247 0.020445385637090332 0.0070165639664716084 0.02065881078766364 -0.03476231679154897 -0.0008254380042538033 0.008078538678842166 -0.015399285057282025 -36.64574058810447 0.04412090393046792 0.04887848780332822 0.016832336758627976 0.0026921228932621803 0.008000602260771277 0.010705357222949742 -0.032152834412397614 -0.031044226523001803 -19.773337077110213 0.019923493185583712 -0.029126289856532244 0.009378708445311348 0.01771605576235439 -0.0008833504754384111 -0.03101968539007766 -0.023949049244251553 -0.0457501804402176 24.05040078037753 -0.011957610181990638 -0.016942293689498587 28.864835214013816 0.01170349101496826 0.019994626859520137 28.89800340334954 -0.013479231873871818 -3.266551490474789e-05 6.470017651660955 1.5164510488004248 13.962978836221083 -69.76257005636816 27.750807472935854 -10.334962360173828 -6.503485240278325 -1.501454075600078 -100.62241182261079 -10.93319116027229 -7.190029349204497 4.15515245327436 -0.4400419510613073 0.019426965447070954 -8.095850494379143 -0.02702230442303277 0.025952056454323833 44.58472109614996 -0.004062175162987573 -0.022777770993528283 44.60931779410331 12.509079462851751 -0.012315916069560772 -0.03417591441511978 0.0005569893963391502 0.04200778252895969 -0.016509461277869668 0.02604405761085779 -0.004604082480637355 -0.002213295647756091 11.106473066557866 0.02595081494601164 0.018773712448753154 -0.037569413523360407 -0.04407438227285472 -0.02251052921575887 0.000949515395888694 0.014696650474965487 0.03498588191717921 4.804385408534504 -0.007702506343825335 -0.046266378215474205 -0.019551438499855647 0.0058158920932115015 0.01996782352448967 -0.04637996370880718 0.030316392457421983 0.019037865292652462 -5.605328103277269 0.041452445768683795 -0.03000999709502037 -6.743333123925867 -0.049603845978315214 -0.03677168362738938 -6.737798655620137 -0.03018719223792824 0.01565041287905974 -0.027985549199700865 0.012672495821784435 -0.04515537985033465 8.060769402126084 3.4625249138665835 -19.224308674782023 -0.009263990259475609 10.418537756705527 -0.03274735373221456 -5.62190165195621 -15.624951200062474 3.2374862220141836 0.020478637666963537 0.026223840932044242 0.01491750608500587 0.001593268219542428 4.6805276977416455 0.024352612879724223 12.449831841079176 -8.283469450224223 6.892917701122503 0.0107751851361308 46.39860030126766 -0.03756879366918518 -4.318145548803059 -14.74466897985623 -3.807175635988426 -0.03356085637699663 0.0036267936386520172 0.015027560067212314 -0.005152658509640731 -10.723326413670142 0.010322740895684197 
